<mxfile host="app.diagrams.net" modified="2022-11-13T21:20:23.436Z" agent="5.0 (Windows NT 10.0; Win64; x64) AppleWebKit/537.36 (KHTML, like Gecko) Chrome/107.0.0.0 Safari/537.36" etag="ApP2i_1-i_ljT75qYGOd" version="20.5.3" type="github">
  <diagram id="v0MDKut95CKC4kZgBaAw" name="Page-1">
    <mxGraphModel dx="2607" dy="2527" grid="1" gridSize="10" guides="1" tooltips="1" connect="1" arrows="1" fold="1" page="1" pageScale="1" pageWidth="850" pageHeight="1100" math="0" shadow="0">
      <root>
        <mxCell id="0" />
        <mxCell id="1" parent="0" />
        <mxCell id="1x8RhWClq7wQ5mpjOaXK-1" style="edgeStyle=orthogonalEdgeStyle;rounded=0;orthogonalLoop=1;jettySize=auto;html=1;entryX=0;entryY=0.5;entryDx=0;entryDy=0;fontSize=21;exitX=1;exitY=0.25;exitDx=0;exitDy=0;strokeWidth=2;" edge="1" parent="1" source="1x8RhWClq7wQ5mpjOaXK-2" target="1x8RhWClq7wQ5mpjOaXK-17">
          <mxGeometry relative="1" as="geometry" />
        </mxCell>
        <mxCell id="1x8RhWClq7wQ5mpjOaXK-2" value="&lt;font size=&quot;1&quot; color=&quot;#ffd966&quot;&gt;&lt;b style=&quot;font-size: 25px;&quot;&gt;V8 Javascript Engine&lt;/b&gt;&lt;/font&gt;" style="rounded=0;whiteSpace=wrap;html=1;fontSize=21;strokeColor=#FFD966;fillStyle=auto;strokeWidth=3;dashed=1;verticalAlign=bottom;labelPosition=center;verticalLabelPosition=top;align=center;fillColor=default;" vertex="1" parent="1">
          <mxGeometry x="120" y="240" width="440" height="600" as="geometry" />
        </mxCell>
        <mxCell id="1x8RhWClq7wQ5mpjOaXK-3" value="" style="edgeStyle=orthogonalEdgeStyle;rounded=0;orthogonalLoop=1;jettySize=auto;html=1;entryX=1;entryY=0.5;entryDx=0;entryDy=0;exitX=1;exitY=0.5;exitDx=0;exitDy=0;strokeWidth=2;" edge="1" parent="1" source="1x8RhWClq7wQ5mpjOaXK-17" target="1x8RhWClq7wQ5mpjOaXK-20">
          <mxGeometry relative="1" as="geometry">
            <mxPoint x="1140" y="400" as="sourcePoint" />
            <Array as="points">
              <mxPoint x="1200" y="390" />
              <mxPoint x="1200" y="680" />
            </Array>
          </mxGeometry>
        </mxCell>
        <mxCell id="1x8RhWClq7wQ5mpjOaXK-4" value="&lt;span style=&quot;font-family: &amp;quot;Google Sans&amp;quot;, arial, sans-serif; text-align: left; font-size: 22px;&quot;&gt;&lt;font color=&quot;#1d87f8&quot; style=&quot;font-size: 22px;&quot;&gt;Chromium &lt;br&gt;&lt;span style=&quot;font-weight: normal;&quot;&gt;&lt;i style=&quot;&quot;&gt;(Chrome, Brave, Edge...)&lt;/i&gt;&lt;/span&gt;&lt;/font&gt;&lt;/span&gt;" style="rounded=0;whiteSpace=wrap;html=1;fontSize=22;strokeWidth=2;fontStyle=1;strokeColor=#6199f6;" vertex="1" parent="1">
          <mxGeometry x="120" y="-40" width="440" height="80" as="geometry" />
        </mxCell>
        <mxCell id="1x8RhWClq7wQ5mpjOaXK-5" style="edgeStyle=orthogonalEdgeStyle;rounded=0;orthogonalLoop=1;jettySize=auto;html=1;strokeWidth=2;" edge="1" parent="1" source="1x8RhWClq7wQ5mpjOaXK-20" target="1x8RhWClq7wQ5mpjOaXK-7">
          <mxGeometry relative="1" as="geometry">
            <mxPoint x="730" y="400" as="targetPoint" />
          </mxGeometry>
        </mxCell>
        <mxCell id="1x8RhWClq7wQ5mpjOaXK-6" style="edgeStyle=orthogonalEdgeStyle;rounded=0;orthogonalLoop=1;jettySize=auto;html=1;fontSize=21;fontColor=#7EA6E0;entryX=1.009;entryY=0.733;entryDx=0;entryDy=0;strokeColor=#004C99;strokeWidth=2;entryPerimeter=0;" edge="1" parent="1" source="1x8RhWClq7wQ5mpjOaXK-7" target="1x8RhWClq7wQ5mpjOaXK-2">
          <mxGeometry relative="1" as="geometry" />
        </mxCell>
        <mxCell id="1x8RhWClq7wQ5mpjOaXK-7" value="Event Loop" style="ellipse;whiteSpace=wrap;html=1;aspect=fixed;rounded=0;glass=0;sketch=0;fillStyle=auto;strokeColor=#004C99;strokeWidth=2;fontSize=21;perimeterSpacing=12;fillColor=none;fontColor=#004C99;dashed=1;" vertex="1" parent="1">
          <mxGeometry x="640" y="600" width="160" height="160" as="geometry" />
        </mxCell>
        <mxCell id="1x8RhWClq7wQ5mpjOaXK-8" value="&lt;font color=&quot;#000000&quot;&gt;&lt;b&gt;Execution Context&lt;br&gt;Garbage Collection&lt;/b&gt;&lt;br&gt;&lt;/font&gt;&lt;div style=&quot;&quot;&gt;&lt;span style=&quot;background-color: initial;&quot;&gt;&lt;font color=&quot;#000000&quot;&gt;Internal Property : &lt;b&gt;Lexical Environment&lt;/b&gt; ([[scope]])&lt;/font&gt;&lt;/span&gt;&lt;/div&gt;" style="text;html=1;strokeColor=none;fillColor=none;align=left;verticalAlign=middle;whiteSpace=wrap;rounded=0;glass=0;dashed=1;sketch=0;fillStyle=auto;strokeWidth=2;fontSize=18;fontColor=#004C99;" vertex="1" parent="1">
          <mxGeometry x="130" y="240" width="420" height="100" as="geometry" />
        </mxCell>
        <mxCell id="1x8RhWClq7wQ5mpjOaXK-9" style="edgeStyle=orthogonalEdgeStyle;rounded=0;orthogonalLoop=1;jettySize=auto;html=1;fontSize=25;strokeWidth=2;strokeColor=#004C99;" edge="1" parent="1" source="1x8RhWClq7wQ5mpjOaXK-10" target="1x8RhWClq7wQ5mpjOaXK-13">
          <mxGeometry relative="1" as="geometry" />
        </mxCell>
        <mxCell id="1x8RhWClq7wQ5mpjOaXK-10" value="Main Thread (Virtual Memory)" style="rounded=0;whiteSpace=wrap;html=1;glass=0;dashed=1;sketch=0;fillStyle=auto;strokeColor=#004C99;strokeWidth=2;fontSize=18;fontColor=#004C99;fillColor=none;gradientColor=none;labelPosition=center;verticalLabelPosition=top;align=center;verticalAlign=bottom;" vertex="1" parent="1">
          <mxGeometry x="163" y="360" width="360" height="320" as="geometry" />
        </mxCell>
        <mxCell id="1x8RhWClq7wQ5mpjOaXK-11" value="&lt;font style=&quot;font-size: 20px;&quot;&gt;&lt;font style=&quot;font-size: 20px;&quot;&gt;&lt;b style=&quot;&quot;&gt;Primitive&lt;/b&gt;&lt;/font&gt;:&lt;br&gt;&lt;/font&gt;&lt;div style=&quot;text-align: left; font-size: 20px;&quot;&gt;&lt;span style=&quot;background-color: initial;&quot;&gt;&lt;span style=&quot;font-size: 17px;&quot;&gt;-&lt;/span&gt;&lt;font style=&quot;font-size: 18px;&quot;&gt;&lt;font style=&quot;font-size: 18px;&quot;&gt;&amp;nbsp;String&lt;/font&gt;&lt;/font&gt;&lt;/span&gt;&lt;/div&gt;&lt;div style=&quot;text-align: left; font-size: 20px;&quot;&gt;&lt;span style=&quot;background-color: initial;&quot;&gt;&lt;font style=&quot;font-size: 18px;&quot;&gt;&lt;font style=&quot;font-size: 18px;&quot;&gt;- Number&lt;/font&gt;&lt;/font&gt;&lt;/span&gt;&lt;/div&gt;&lt;font style=&quot;font-size: 18px;&quot;&gt;&lt;span style=&quot;background-color: initial;&quot;&gt;&lt;div style=&quot;text-align: left;&quot;&gt;&lt;span style=&quot;background-color: initial;&quot;&gt;&lt;font style=&quot;font-size: 18px;&quot;&gt;- Boolean&lt;/font&gt;&lt;/span&gt;&lt;/div&gt;&lt;/span&gt;&lt;span style=&quot;background-color: initial;&quot;&gt;&lt;div style=&quot;text-align: left;&quot;&gt;&lt;span style=&quot;background-color: initial;&quot;&gt;&lt;font style=&quot;font-size: 18px;&quot;&gt;- Bigint&lt;/font&gt;&lt;/span&gt;&lt;/div&gt;&lt;/span&gt;&lt;span style=&quot;background-color: initial;&quot;&gt;&lt;div style=&quot;text-align: left;&quot;&gt;&lt;span style=&quot;background-color: initial;&quot;&gt;- Symbol&lt;/span&gt;&lt;/div&gt;&lt;/span&gt;&lt;span style=&quot;background-color: initial;&quot;&gt;&lt;div style=&quot;text-align: left;&quot;&gt;&lt;span style=&quot;background-color: initial;&quot;&gt;- Null&lt;/span&gt;&lt;/div&gt;&lt;/span&gt;&lt;span style=&quot;background-color: initial;&quot;&gt;&lt;div style=&quot;text-align: left;&quot;&gt;&lt;span style=&quot;background-color: initial;&quot;&gt;- Undefined&lt;/span&gt;&lt;/div&gt;&lt;/span&gt;&lt;/font&gt;" style="rounded=0;whiteSpace=wrap;html=1;glass=0;sketch=0;fillStyle=auto;strokeColor=#004C99;strokeWidth=2;fontSize=18;fontColor=#004C99;fillColor=none;gradientColor=none;verticalAlign=top;" vertex="1" parent="1">
          <mxGeometry x="200" y="440" width="120" height="200" as="geometry" />
        </mxCell>
        <mxCell id="1x8RhWClq7wQ5mpjOaXK-12" value="&lt;b&gt;&lt;font style=&quot;font-size: 20px;&quot;&gt;Reference&lt;/font&gt;&lt;/b&gt;:&lt;br&gt;&lt;div style=&quot;text-align: left;&quot;&gt;&lt;span style=&quot;background-color: initial;&quot;&gt;&lt;span style=&quot;font-size: 17px;&quot;&gt;-&lt;/span&gt;&lt;font style=&quot;font-size: 18px;&quot;&gt;&lt;font style=&quot;font-size: 18px;&quot;&gt; &lt;/font&gt;&lt;font style=&quot;font-size: 18px;&quot;&gt;Object&lt;/font&gt;&lt;/font&gt;&lt;/span&gt;&lt;/div&gt;&lt;font style=&quot;font-size: 18px;&quot;&gt;&lt;span style=&quot;background-color: initial;&quot;&gt;&lt;div style=&quot;text-align: left;&quot;&gt;&lt;span style=&quot;background-color: initial;&quot;&gt;&lt;font style=&quot;font-size: 18px;&quot;&gt;- Function&lt;/font&gt;&lt;/span&gt;&lt;/div&gt;&lt;/span&gt;&lt;span style=&quot;background-color: initial;&quot;&gt;&lt;div style=&quot;text-align: left;&quot;&gt;&lt;span style=&quot;background-color: initial;&quot;&gt;&lt;font style=&quot;font-size: 18px;&quot;&gt;- Array&lt;/font&gt;&lt;/span&gt;&lt;/div&gt;&lt;/span&gt;&lt;span style=&quot;background-color: initial;&quot;&gt;&lt;div style=&quot;text-align: left;&quot;&gt;&lt;span style=&quot;background-color: initial;&quot;&gt;- ...&lt;/span&gt;&lt;/div&gt;&lt;/span&gt;&lt;/font&gt;" style="rounded=0;whiteSpace=wrap;html=1;glass=0;sketch=0;fillStyle=auto;strokeColor=#004C99;strokeWidth=2;fontSize=18;fontColor=#004C99;fillColor=none;gradientColor=none;verticalAlign=top;" vertex="1" parent="1">
          <mxGeometry x="360" y="440" width="120" height="200" as="geometry" />
        </mxCell>
        <mxCell id="1x8RhWClq7wQ5mpjOaXK-13" value="&lt;font color=&quot;#4d4d4d&quot;&gt;RAM (Physical Memory)&lt;/font&gt;" style="rounded=0;whiteSpace=wrap;html=1;glass=0;sketch=0;fillStyle=auto;strokeColor=#4D4D4D;strokeWidth=2;fontSize=18;fontColor=#004C99;fillColor=none;gradientColor=none;dashed=1;" vertex="1" parent="1">
          <mxGeometry x="163" y="720" width="360" height="80" as="geometry" />
        </mxCell>
        <mxCell id="1x8RhWClq7wQ5mpjOaXK-14" value="&lt;b&gt;Call Stack&amp;nbsp;&lt;/b&gt;&lt;i&gt;&lt;font style=&quot;font-size: 12px;&quot;&gt;(Pile)&lt;/font&gt;&lt;/i&gt;&lt;br&gt;&lt;div style=&quot;text-align: center;&quot;&gt;&lt;span style=&quot;background-color: initial; text-align: left;&quot;&gt;Static Memory&lt;/span&gt;&lt;/div&gt;&lt;div style=&quot;text-align: left; font-size: 16px;&quot;&gt;&lt;span style=&quot;background-color: initial; font-size: 16px;&quot;&gt;Execution Context&lt;/span&gt;&lt;/div&gt;" style="text;html=1;strokeColor=none;fillColor=none;align=center;verticalAlign=middle;whiteSpace=wrap;rounded=0;glass=0;dashed=1;sketch=0;fillStyle=auto;strokeWidth=2;fontSize=16;fontColor=#004C99;" vertex="1" parent="1">
          <mxGeometry x="182" y="374" width="150" height="64" as="geometry" />
        </mxCell>
        <mxCell id="1x8RhWClq7wQ5mpjOaXK-15" value="&lt;b&gt;Heap&amp;nbsp;&lt;/b&gt;&lt;i&gt;&lt;font style=&quot;font-size: 12px;&quot;&gt;(Tas)&lt;/font&gt;&lt;/i&gt;&lt;br&gt;Dynamic Memory&lt;br&gt;Memory Allocation" style="text;html=1;strokeColor=none;fillColor=none;align=center;verticalAlign=middle;whiteSpace=wrap;rounded=0;glass=0;dashed=1;sketch=0;fillStyle=auto;strokeWidth=2;fontSize=16;fontColor=#004C99;" vertex="1" parent="1">
          <mxGeometry x="341" y="363" width="157" height="75" as="geometry" />
        </mxCell>
        <mxCell id="1x8RhWClq7wQ5mpjOaXK-16" value="" style="group" connectable="0" vertex="1" parent="1">
          <mxGeometry x="882" y="320" width="238" height="140" as="geometry" />
        </mxCell>
        <mxCell id="1x8RhWClq7wQ5mpjOaXK-17" value="&lt;span style=&quot;font-family: &amp;quot;Google Sans&amp;quot;, arial, sans-serif; text-align: left;&quot;&gt;&lt;font size=&quot;1&quot; style=&quot;&quot;&gt;&lt;b style=&quot;font-size: 20px;&quot;&gt;Web or C++ Api&lt;/b&gt;&lt;/font&gt;&lt;/span&gt;" style="rounded=0;whiteSpace=wrap;html=1;labelPosition=center;verticalLabelPosition=top;align=center;verticalAlign=bottom;fillColor=default;fontColor=#666666;strokeColor=#666666;dashed=1;strokeWidth=2;" vertex="1" parent="1x8RhWClq7wQ5mpjOaXK-16">
          <mxGeometry width="238" height="140" as="geometry" />
        </mxCell>
        <mxCell id="1x8RhWClq7wQ5mpjOaXK-18" value="&lt;font color=&quot;#1a1a1a&quot;&gt;setTimeout()&lt;br&gt;fetch()&lt;br&gt;DOM&lt;br&gt;CSSOM&lt;br&gt;....&lt;/font&gt;" style="text;html=1;strokeColor=none;fillColor=none;align=left;verticalAlign=middle;whiteSpace=wrap;rounded=0;glass=0;dashed=1;sketch=0;fillStyle=auto;strokeWidth=2;fontSize=16;fontColor=#004C99;" vertex="1" parent="1x8RhWClq7wQ5mpjOaXK-16">
          <mxGeometry x="23.799999999999997" y="30" width="166.6" height="80" as="geometry" />
        </mxCell>
        <mxCell id="1x8RhWClq7wQ5mpjOaXK-19" value="" style="group;fillColor=default;" connectable="0" vertex="1" parent="1">
          <mxGeometry x="882" y="600" width="238" height="160" as="geometry" />
        </mxCell>
        <mxCell id="1x8RhWClq7wQ5mpjOaXK-20" value="&lt;span style=&quot;font-family: &amp;quot;Google Sans&amp;quot;, arial, sans-serif; text-align: left;&quot;&gt;&lt;font color=&quot;#1a1a1a&quot; style=&quot;font-size: 18px;&quot;&gt;Message&lt;b&gt; / Event Queue&lt;/b&gt;&lt;/font&gt;&lt;/span&gt;" style="rounded=0;whiteSpace=wrap;html=1;labelPosition=center;verticalLabelPosition=top;align=center;verticalAlign=bottom;dashed=1;strokeWidth=2;strokeColor=#1A1A1A;fillColor=none;" vertex="1" parent="1x8RhWClq7wQ5mpjOaXK-19">
          <mxGeometry width="238" height="160" as="geometry" />
        </mxCell>
        <mxCell id="1x8RhWClq7wQ5mpjOaXK-21" value="Microtasks Queue&lt;br&gt;(Job / &lt;b&gt;Promise &lt;/b&gt;Queue)" style="rounded=0;whiteSpace=wrap;html=1;fontSize=16;fontColor=#1A1A1A;" vertex="1" parent="1x8RhWClq7wQ5mpjOaXK-19">
          <mxGeometry x="23.799999999999997" y="20" width="190.39999999999998" height="50" as="geometry" />
        </mxCell>
        <mxCell id="1x8RhWClq7wQ5mpjOaXK-22" value="Callback Queue&lt;br&gt;(MacroTask Queue)" style="rounded=0;whiteSpace=wrap;html=1;fontSize=16;fontColor=#1A1A1A;" vertex="1" parent="1x8RhWClq7wQ5mpjOaXK-19">
          <mxGeometry x="23.799999999999997" y="90" width="190.39999999999998" height="50" as="geometry" />
        </mxCell>
        <mxCell id="1x8RhWClq7wQ5mpjOaXK-23" value="&lt;span style=&quot;font-family: &amp;quot;Google Sans&amp;quot;, arial, sans-serif; text-align: left;&quot;&gt;&lt;font color=&quot;#ff8000&quot; style=&quot;font-size: 18px;&quot;&gt;&lt;b style=&quot;&quot;&gt;Web Workers&lt;/b&gt;&lt;/font&gt;&lt;/span&gt;" style="rounded=0;whiteSpace=wrap;html=1;labelPosition=center;verticalLabelPosition=top;align=center;verticalAlign=bottom;dashed=1;strokeWidth=2;strokeColor=#FF8000;fillColor=none;" vertex="1" parent="1">
          <mxGeometry x="600" y="840" width="240" height="160" as="geometry" />
        </mxCell>
        <mxCell id="1x8RhWClq7wQ5mpjOaXK-24" value="background thread" style="rounded=0;whiteSpace=wrap;html=1;fontSize=16;fontColor=#1A1A1A;" vertex="1" parent="1">
          <mxGeometry x="620" y="861" width="200" height="50" as="geometry" />
        </mxCell>
        <mxCell id="1x8RhWClq7wQ5mpjOaXK-25" value="Parallel programming" style="rounded=0;whiteSpace=wrap;html=1;fontSize=16;fontColor=#1A1A1A;" vertex="1" parent="1">
          <mxGeometry x="620" y="931" width="200" height="50" as="geometry" />
        </mxCell>
        <mxCell id="1x8RhWClq7wQ5mpjOaXK-26" value="&lt;span style=&quot;font-family: &amp;quot;Google Sans&amp;quot;, arial, sans-serif; text-align: left;&quot;&gt;&lt;font color=&quot;#ffb570&quot; style=&quot;font-size: 18px;&quot;&gt;&lt;b style=&quot;&quot;&gt;Services Workers&lt;/b&gt;&lt;/font&gt;&lt;/span&gt;" style="rounded=0;whiteSpace=wrap;html=1;labelPosition=center;verticalLabelPosition=top;align=center;verticalAlign=bottom;dashed=1;strokeWidth=2;strokeColor=#FFB570;fillColor=none;" vertex="1" parent="1">
          <mxGeometry x="882" y="840" width="240" height="160" as="geometry" />
        </mxCell>
        <mxCell id="1x8RhWClq7wQ5mpjOaXK-27" value="background thread" style="rounded=0;whiteSpace=wrap;html=1;fontSize=16;fontColor=#1A1A1A;" vertex="1" parent="1">
          <mxGeometry x="902" y="861" width="200" height="50" as="geometry" />
        </mxCell>
        <mxCell id="1x8RhWClq7wQ5mpjOaXK-28" value="Proxy / Network" style="rounded=0;whiteSpace=wrap;html=1;fontSize=16;fontColor=#1A1A1A;" vertex="1" parent="1">
          <mxGeometry x="902" y="931" width="200" height="50" as="geometry" />
        </mxCell>
        <mxCell id="1x8RhWClq7wQ5mpjOaXK-29" value="&lt;span style=&quot;color: rgb(103, 171, 159); font-family: &amp;quot;Google Sans&amp;quot;, arial, sans-serif; text-align: left;&quot;&gt;Blink :&amp;nbsp;&amp;nbsp;&lt;span style=&quot;font-weight: normal;&quot;&gt;based on WebKit&lt;/span&gt;&lt;/span&gt;&lt;br style=&quot;color: rgb(103, 171, 159); font-family: &amp;quot;Google Sans&amp;quot;, arial, sans-serif; text-align: left;&quot;&gt;&lt;span style=&quot;color: rgb(103, 171, 159); font-family: &amp;quot;Google Sans&amp;quot;, arial, sans-serif; text-align: left; font-weight: normal;&quot;&gt;&lt;i&gt;(Moteur de rendu HTML)&lt;/i&gt;&lt;/span&gt;" style="rounded=0;whiteSpace=wrap;html=1;fontSize=22;strokeWidth=2;fontStyle=1;fillColor=default;strokeColor=#82b366;dashed=1;" vertex="1" parent="1">
          <mxGeometry x="120" y="80" width="440" height="80" as="geometry" />
        </mxCell>
      </root>
    </mxGraphModel>
  </diagram>
</mxfile>
